<?xml version="1.0" encoding="utf-8"?>
<!-- Generator: Adobe Illustrator 16.0.0, SVG Export Plug-In . SVG Version: 6.00 Build 0)  -->
<!DOCTYPE svg PUBLIC "-//W3C//DTD SVG 1.1//EN" "http://www.w3.org/Graphics/SVG/1.1/DTD/svg11.dtd">
<svg version="1.1" xmlns="http://www.w3.org/2000/svg" xmlns:xlink="http://www.w3.org/1999/xlink" x="0px" y="0px" width="200px"
	 height="183.174px" viewBox="0 0 200 183.174" enable-background="new 0 0 200 183.174" xml:space="preserve">
<g id="Layer_1">
</g>
<g id="Layer_2">
	<g>
		<path fill-rule="evenodd" clip-rule="evenodd" fill="#40BFBB" d="M86.56,52.824c-4.271,8.092-8.379,15.871-12.546,23.766
			c0.386,0.105,1.145,0.356,1.923,0.518c6.089,1.271,12.196,2.459,18.269,3.809c4.03,0.896,6.552,3.413,7.71,7.466
			c3.603,12.618,7.334,25.2,10.979,37.808c1.425,4.926-0.289,9.135-4.307,10.839c-4.84,2.053-9.786-0.433-11.395-5.849
			c-2.753-9.273-5.488-18.555-8.088-27.873c-0.545-1.966-1.484-2.832-3.455-3.262c-10.514-2.297-21.011-4.677-31.488-7.141
			c-6.247-1.469-10.098-6.366-9.607-12.382c0.162-2.021,0.903-4.125,1.871-5.928c6.45-12.001,13.01-23.944,19.578-35.882
			c4.16-7.562,12.581-9.057,19.171-3.381c6.37,5.487,12.72,11.002,18.942,16.656c1.886,1.713,3.52,2.214,6.02,1.38
			c5.9-1.971,11.911-3.616,17.891-5.347c1.285-0.373,2.618-0.699,3.945-0.788c2.57-0.172,4.67,1.325,5.429,3.651
			c0.808,2.472-0.05,4.94-2.364,6.308c-1.072,0.634-2.283,1.082-3.483,1.438c-7.906,2.339-15.845,4.566-23.73,6.971
			c-3.399,1.035-6.231,0.436-8.858-1.92C94.965,60.092,90.88,56.596,86.56,52.824z"/>
		<path fill-rule="evenodd" clip-rule="evenodd" fill="#40BFBB" d="M14.489,153.135c-5.838-20.225,5.712-41.275,25.884-47.172
			c20.251-5.921,41.568,5.766,47.377,25.976c5.832,20.285-5.912,41.475-26.191,47.253C41.311,184.957,20.323,173.34,14.489,153.135z
			 M21.177,151.129c4.742,16.575,21.893,26.12,38.436,21.389c16.543-4.73,26.14-21.893,21.492-38.436
			c-4.663-16.602-22.027-26.242-38.653-21.459C25.909,117.38,16.43,134.539,21.177,151.129z"/>
		<path fill-rule="evenodd" clip-rule="evenodd" fill="#40BFBB" d="M195.621,90.827c5.851,20.163-5.742,41.35-25.846,47.239
			c-20.188,5.916-41.574-5.802-47.414-25.979c-5.859-20.239,5.895-41.479,26.161-47.271
			C168.765,59.032,189.76,70.627,195.621,90.827z M150.207,71.574c-16.498,4.889-25.945,22.168-21.131,38.645
			c4.832,16.532,22.316,26.027,38.879,21.113c16.428-4.876,25.838-22.312,20.907-38.744
			C183.893,76.025,166.709,66.684,150.207,71.574z"/>
		<path fill-rule="evenodd" clip-rule="evenodd" fill="#40BFBB" d="M78.229,22.942c-2.196-7.546,2.157-15.492,9.699-17.704
			c7.511-2.203,15.522,2.153,17.759,9.656c2.222,7.456-2.195,15.48-9.742,17.697C88.385,34.812,80.417,30.472,78.229,22.942z"/>
	</g>
	<g>
		<path d="M68.883,7.956H32.52c-1.076,0-1.948,0.872-1.948,1.947s0.872,1.947,1.948,1.947h36.363c1.076,0,1.947-0.872,1.947-1.947
			S69.959,7.956,68.883,7.956"/>
		<path d="M55.396,32.703H19.033c-1.077,0-1.948,0.873-1.948,1.947c0,1.077,0.871,1.949,1.948,1.949h36.362
			c1.077,0,1.948-0.872,1.948-1.949C57.344,33.576,56.473,32.703,55.396,32.703"/>
		<path d="M40.312,58.74H3.947C2.872,58.74,2,59.613,2,60.689c0,1.075,0.872,1.946,1.947,1.946h36.365
			c1.075,0,1.945-0.871,1.945-1.946C42.258,59.613,41.388,58.74,40.312,58.74"/>
	</g>
</g>
<g id="Layer_3">
</g>
</svg>
