<?xml version="1.0" encoding="utf-8"?>
<!-- Generator: Adobe Illustrator 16.0.0, SVG Export Plug-In . SVG Version: 6.00 Build 0)  -->
<!DOCTYPE svg PUBLIC "-//W3C//DTD SVG 1.1//EN" "http://www.w3.org/Graphics/SVG/1.1/DTD/svg11.dtd">
<svg version="1.1" xmlns="http://www.w3.org/2000/svg" xmlns:xlink="http://www.w3.org/1999/xlink" x="0px" y="0px"
	 width="156.468px" height="183.174px" viewBox="0 0 156.468 183.174" enable-background="new 0 0 156.468 183.174"
	 xml:space="preserve">
<g id="Layer_1">
</g>
<g id="Layer_2">
</g>
<g id="Layer_3">
	<g>
		<path fill="#9E109E" d="M118.813,67.505c0.277,0.126,0.56,0.226,0.846,0.31c0.051,0.017,0.103,0.028,0.153,0.043
			c0.09,0.025,0.178,0.053,0.268,0.073c1.601,0.399,3.357,0.17,4.856-0.791l26.561-17.028c2.887-1.852,3.729-5.693,1.877-8.582
			c-1.852-2.887-5.694-3.728-8.581-1.876l-23.484,15.056L97.546,43.862c-0.731-0.421-1.503-0.774-2.308-1.053l-0.135-0.062
			c-0.864-0.394-1.771-0.575-2.663-0.576c-1.077-0.124-2.188-0.117-3.312,0.035c-7.261,0.989-12.347,7.676-11.358,14.936
			l6.55,48.135l-12.118,41.149c-0.277,0.941-0.431,1.89-0.479,2.829l-36.272,11.777c-4.448,1.444-6.885,6.222-5.439,10.671
			c1.444,4.448,6.222,6.883,10.671,5.438l48.4-15.715c2.947-0.957,5.011-3.378,5.646-6.195c0.305-0.617,0.562-1.266,0.764-1.946
			l7.91-26.861l26.013,11.053c0.497,0.212,1.001,0.383,1.508,0.525l3.838,36.093c0.494,4.65,4.665,8.02,9.316,7.525
			s8.021-4.666,7.527-9.317l-5.186-48.776c-0.318-2.99-2.157-5.449-4.664-6.693c-0.848-0.678-1.798-1.257-2.846-1.702
			l-28.091-11.935l-5.709-41.946L118.813,67.505z"/>
		<circle fill="#9E109E" cx="81.694" cy="20.419" r="17.634"/>
	</g>
	<g>
		<path d="M48.096,18.178H4.341c-1.247,0-2.259,1.01-2.259,2.258s1.012,2.259,2.259,2.259h43.755c1.247,0,2.259-1.011,2.259-2.259
			S49.343,18.178,48.096,18.178"/>
		<path d="M60.251,52.631H16.494c-1.247,0-2.258,1.012-2.258,2.259s1.011,2.259,2.258,2.259h43.757c1.247,0,2.258-1.012,2.258-2.259
			S61.498,52.631,60.251,52.631"/>
		<path d="M65.72,88.652H21.964c-1.246,0-2.258,1.012-2.258,2.259s1.012,2.259,2.258,2.259H65.72c1.247,0,2.259-1.012,2.259-2.259
			S66.967,88.652,65.72,88.652"/>
	</g>
</g>
</svg>
