<?xml version="1.0" encoding="utf-8"?>
<!-- Generator: Adobe Illustrator 16.0.0, SVG Export Plug-In . SVG Version: 6.00 Build 0)  -->
<!DOCTYPE svg PUBLIC "-//W3C//DTD SVG 1.1//EN" "http://www.w3.org/Graphics/SVG/1.1/DTD/svg11.dtd">
<svg version="1.1" xmlns="http://www.w3.org/2000/svg" xmlns:xlink="http://www.w3.org/1999/xlink" x="0px" y="0px" width="320px"
	 height="480px" viewBox="0 0 320 480" enable-background="new 0 0 320 480" xml:space="preserve">
<g id="Layer_1" display="none">
</g>
<g id="Layer_2">
	<g>
		<path fill="none" stroke="#FFFFFF" stroke-width="2" stroke-miterlimit="10" d="M296.101,160.289
			c0.655-29.689-7.845-56.73-26.333-79.919c-32.459-40.709-75.365-58.036-126.695-51.263C94.738,35.484,59.109,61.411,38.393,105.9
			c-12.875,27.65-15.306,56.487-4.842,85.779c6.26,17.527,15.313,33.633,24.832,49.518c11.734,19.585,23.396,39.216,35.176,58.775
			c4.811,7.986,6.954,16.652,7.189,25.868c0.201,7.899,0.434,15.801,0.47,23.703c0.035,8.063,3.843,14.06,11.269,17.177
			c4.845,2.035,8.709,2.562,14.153,2.2l68.921-0.427c0,0,5.146,0.105,7.528-0.019c10.511-0.556,19.937-8.099,19.171-20.156
			c-0.516-8.144,0.161-16.376,0.524-24.558c0.33-7.486,1.872-14.673,5.748-21.264c7.717-13.117,15.113-26.426,23.003-39.435
			c11.04-18.208,22.727-36.038,31.731-55.401C290.264,192.614,295.73,177.066,296.101,160.289z"/>
		<g>
			<g>
				<path fill-rule="evenodd" clip-rule="evenodd" d="M106.209,374.001c0.021,3.229,0.267,3.78,4.502,3.816
					c1.788,0.017,4.461,0.021,6.25,0.021c-4.742,1.155-8.794,3.1-9.541,8.138c-1.081,7.291,4.121,9.84,10.192,11.438
					c-0.579,0.461-0.973,0.669-1.391,0.746c-5.608,1.02-8.938,4.224-9.048,8.74c-0.113,4.571,3.102,8.036,8.547,9.264
					c0.615,0.139,1.188,0.467,1.782,0.708c-5.385,1.375-10.022,3.337-10.244,9.457c-0.239,6.63,4.67,8.767,9.553,9.751
					c0.745,2.176,0.88,4.339,2.028,5.522c2.021,2.09,4.956,3.295,6.982,5.381c4.742,4.889,10.266,7.003,16.977,5.854
					c3.568-0.611,6.092,0.516,7.372,4.026c1.982,5.424,5.865,6.486,11.472,6.745c7.258,0.335,12.024-1.602,14.583-8.455
					c0.679-1.817,2.003-2.477,4.019-2.36c3.246,0.19,6.518,0.196,9.76-0.002c1.301-0.079,2.747-0.646,3.797-1.435
					c3.288-2.461,6.321-5.267,9.643-7.681c2.369-1.724,4.566-3.667,7.774-4.229c2.944-0.519,5.382-2.469,6.347-5.614
					c1.625-5.295-1.191-10.019-6.854-11.565c-0.977-0.268-1.955-0.528-2.934-0.793c0.018-0.236,0.033-0.472,0.051-0.708
					c4.981-0.774,9.516-2.51,10.163-8.095c0.83-7.167-4.44-9.481-10.346-11.102c5.688-1.348,10.784-3.368,10.53-10.03
					c-0.234-6.075-5.051-8.155-10.051-9.062c0-1.447,0-2.761,0-4.635c2,0,4.494-0.046,6.676,0.013
					c2.51,0.067,2.935-0.972,2.95-3.772c0,0,0.087-3.873,0.083-6.542c-0.002-1.498-0.25-6,0.688-6.623l-113.607,0.227
					c0.482,0.647,1.253,1.752,1.315,3.335L106.209,374.001z M209.982,428.343c0.996,0.458,2.046,1.926,2.084,2.978
					c0.028,0.816-1.334,1.97-2.33,2.452c-0.952,0.46-2.236,0.357-3.365,0.307c-14.529-0.634-29.056-1.305-43.583-1.967
					c0,0.01-0.002,0.016-0.002,0.024c-14.811-0.708-29.623-1.415-44.436-2.123c-0.286-0.014-0.573-0.017-0.858-0.043
					c-2.141-0.177-4.075-0.789-4.411-3.245c-0.24-1.756,1.946-3.249,4.692-3.142c9.464,0.367,18.926,0.821,28.387,1.26
					c19.688,0.911,39.374,1.822,59.06,2.769C206.83,427.688,208.577,427.694,209.982,428.343z M210.421,408.99
					c0.844,0.445,1.751,1.774,1.694,2.646c-0.06,0.878-1.12,2.046-2.021,2.425c-1.162,0.489-2.608,0.469-3.921,0.416
					c-14.433-0.614-28.864-1.275-46.913-2.088c-11.192-0.534-26.005-1.24-40.815-1.949c-0.19-0.009-0.383-0.015-0.573-0.026
					c-2.961-0.198-5.144-1.67-4.763-3.447c0.59-2.746,2.861-3.048,5.172-2.944c13.859,0.611,27.717,1.246,41.574,1.884
					c15.48,0.713,30.963,1.425,46.441,2.189C207.697,408.166,209.219,408.356,210.421,408.99z M210.062,389.238
					c0.983,0.501,2.142,2.043,2.017,2.956c-0.133,0.972-1.555,2.062-2.656,2.522c-1.068,0.445-2.444,0.233-3.681,0.176
					c-29.242-1.324-58.486-2.664-87.729-4.011c-0.665-0.029-1.52,0.081-1.951-0.277c-1.099-0.909-2.007-2.048-2.993-3.096
					c1.13-1.005,2.193-2.105,3.422-2.966c0.456-0.32,1.305-0.116,1.973-0.088c14.622,0.669,29.243,1.348,43.864,2.024
					c0,0.006-0.001,0.013-0.002,0.021c14.431,0.656,28.862,1.299,43.292,1.988C207.123,388.561,208.781,388.588,210.062,389.238z"/>
			</g>
			<path fill-rule="evenodd" clip-rule="evenodd" fill="#9E9E9E" d="M162.325,386.5c14.431,0.656,28.862,1.299,43.292,1.988
				c1.506,0.072,3.164,0.1,4.444,0.75c0.983,0.501,2.142,2.043,2.017,2.956c-0.133,0.972-1.555,2.062-2.656,2.522
				c-1.068,0.445-2.444,0.233-3.681,0.176c-29.242-1.324-58.486-2.664-87.729-4.011c-0.665-0.029-1.52,0.081-1.951-0.277
				c-1.099-0.909-2.007-2.048-2.993-3.096c1.13-1.005,2.193-2.105,3.422-2.966c0.456-0.32,1.305-0.116,1.973-0.088
				c14.622,0.669,29.243,1.348,43.864,2.024C162.327,386.485,162.326,386.492,162.325,386.5z"/>
			<path fill-rule="evenodd" clip-rule="evenodd" fill="#9E9E9E" d="M162.786,432.137c-14.811-0.708-29.623-1.415-44.436-2.123
				c-0.286-0.014-0.573-0.017-0.858-0.043c-2.141-0.177-4.075-0.789-4.411-3.245c-0.24-1.756,1.946-3.249,4.692-3.142
				c9.464,0.367,18.926,0.821,28.387,1.26c19.688,0.911,39.374,1.822,59.06,2.769c1.61,0.076,3.357,0.082,4.763,0.73
				c0.996,0.458,2.046,1.926,2.084,2.978c0.028,0.816-1.334,1.97-2.33,2.452c-0.952,0.46-2.236,0.357-3.365,0.307
				c-14.529-0.634-29.056-1.305-43.583-1.967C162.788,432.122,162.786,432.128,162.786,432.137z"/>
			<path fill-rule="evenodd" clip-rule="evenodd" fill="#9E9E9E" d="M159.261,412.39c-11.192-0.534-26.005-1.24-40.815-1.949
				c-0.19-0.009-0.383-0.015-0.573-0.026c-2.961-0.198-5.144-1.67-4.763-3.447c0.59-2.746,2.861-3.048,5.172-2.944
				c13.859,0.611,27.717,1.246,41.574,1.884c15.48,0.713,30.963,1.425,46.441,2.189c1.4,0.07,2.922,0.261,4.124,0.895
				c0.844,0.445,1.751,1.774,1.694,2.646c-0.06,0.878-1.12,2.046-2.021,2.425c-1.162,0.489-2.608,0.469-3.921,0.416
				C191.741,413.863,177.31,413.202,159.261,412.39z"/>
		</g>
		<path fill-rule="evenodd" clip-rule="evenodd" d="M179.946,336.597c0.011-4.365-1.275-7.533-4.391-9.001
			c-1.001-0.472-0.856-1.369-0.858-2.336c-0.002-13.222,0.039-26.442-0.05-39.662c-0.015-1.962-0.68-3.903-0.937-5.881
			c-0.095-0.726-0.024-1.627,0.222-2.279c7.015-18.698,14.062-37.378,21.104-56.059c0.9-2.391,1.845-4.753,2.693-7.177
			c0.738-2.112,0.268-3.065-1.438-3.092c-1.517-0.024-3.035-0.094-4.547,0.022c-1.018,0.079-1.485-0.377-1.72-1.73
			c-0.562-3.231-1.169-6.451-1.891-9.619c-0.195-0.852-0.821-2.044-1.337-2.131c-1.069-0.18-1.371,1.152-1.519,2.431
			c-0.653,5.638-1.33,11.274-2.229,16.957c-0.093-0.495-0.214-0.983-0.275-1.485c-0.629-5.229-1.262-10.457-1.863-15.693
			c-0.144-1.265-0.543-2.412-1.511-2.137c-0.546,0.154-1.214,1.311-1.329,2.142c-0.711,5.136-1.281,10.308-1.9,15.468
			c-0.065,0.537-0.166,1.068-0.527,1.621c-0.549-4.587-1.1-9.174-1.65-13.761c-0.108-0.907-0.229-1.812-0.314-2.722
			c-0.123-1.296-0.224-2.736-1.454-2.808c-1.371-0.08-1.457,1.523-1.615,2.834c-0.573,4.74-1.113,9.487-1.671,14.23
			c-0.098,0.831-0.224,1.655-0.564,2.505c-0.534-4.454-1.066-8.908-1.604-13.36c-0.173-1.465-0.246-2.975-0.576-4.373
			c-0.174-0.733-0.803-1.268-1.225-1.894c-0.455,0.667-1.211,1.258-1.312,2.012c-0.719,5.208-1.298,10.449-1.925,15.678
			c-0.075,0.613-0.164,1.224-0.247,1.836c-0.088,0.019-0.178,0.038-0.265,0.056c-0.663-5.576-1.325-11.152-1.983-16.729
			c-0.149-1.261-0.172-2.811-1.443-2.775c-1.269,0.034-1.236,1.627-1.385,2.859c-0.664,5.544-1.318,11.088-2.247,16.656
			c-0.401-3.314-0.802-6.632-1.204-9.947c-0.295-2.439-0.504-4.907-0.931-7.304c-0.151-0.856-0.824-1.541-1.259-2.304
			c-0.486,0.782-1.287,1.485-1.408,2.36c-0.758,5.483-1.362,11.004-2.021,16.514c-0.029,0.253-0.089,0.5-0.33,0.764
			c-0.631-5.287-1.236-10.579-1.91-15.856c-0.183-1.434,0.08-3.647-1.455-3.714c-1.723-0.072-1.398,2.291-1.59,3.743
			c-0.631,4.797-1.143,9.624-1.71,14.436c-0.046,0.387-0.177,0.753-0.405,1.696c-0.731-6.153-1.381-11.703-2.062-17.246
			c-0.092-0.742-0.224-1.585-0.557-2.142c-0.769-1.284-1.93-0.78-2.299,1.005c-0.688,3.331-1.357,6.673-1.936,10.042
			c-0.242,1.406-0.645,2.016-1.779,1.896c-1.455-0.153-2.926-0.046-4.391-0.033c-1.805,0.014-2.27,0.955-1.446,3.193
			c2.003,5.436,4.057,10.837,6.096,16.247c5.904,15.671,11.817,31.333,17.691,47.023c0.235,0.63,0.22,1.542,0.12,2.272
			c-0.259,1.91-0.9,3.79-0.914,5.688c-0.081,13.149-0.059,26.3-0.018,39.449c0.005,1.54-0.275,2.268-1.412,2.917
			c-2.532,1.446-3.812,4.245-3.811,8.032c0.002,10.534-0.001,21.068-0.002,31.603c0,0.692,0,1.389,0,2.168
			c2.091-0.215,4.479,1.501,6.601,1.163c0-0.785,0-1.515,0-2.242c0-9.114,0-18.229,0.002-27.342
			c0.001-5.013,1.136-6.597,4.806-6.731c0.207-0.008,0.415-0.048,0.869-0.103c0-3.804,0-7.465,0-11.124
			c-0.001-6.994-0.008-13.989-0.001-20.984c0.003-4.014,1.455-5.972,4.413-5.99c0.993-0.006,1.985-0.003,2.979,0
			c3.426,0.006,4.766,1.791,4.767,6.363c0.002,9.823,0.002,19.644,0.002,29.464c0,0.695,0,1.392,0,2.387
			c0.711,0,1.318-0.038,1.917,0.007c2.098,0.161,3.706,2.017,3.721,4.74c0.06,10.386,0.012,20.771-0.004,31.155l0,0
			c1.259,1.223,5.218-0.031,6.648-0.654c0-0.854,0-1.553,0-2.247C179.938,357.24,179.916,346.919,179.946,336.597z M171.606,276.292
			c-6.74-0.542-13.212-0.67-20.047-0.01c-7.602-20.167-15.387-40.822-23.306-61.829c1.853,0,3.399-0.046,4.944,0.016
			c1.01,0.041,1.543-0.543,1.769-1.851c0.27-1.557,0.604-3.095,1.229-4.647c0.462,3.829,0.927,7.658,1.384,11.489
			c0.368,3.068,0.653,6.16,1.141,9.194c0.135,0.839,0.856,1.507,1.309,2.253c0.451-0.745,1.193-1.417,1.307-2.247
			c0.714-5.206,1.287-10.45,1.911-15.679c0.056-0.462,0.146-0.916,0.485-1.386c0.562,4.671,1.121,9.34,1.682,14.01
			c0.107,0.905,0.231,1.81,0.314,2.721c0.113,1.254,0.346,2.737,1.425,2.479c0.561-0.132,1.222-1.601,1.354-2.585
			c0.756-5.554,1.365-11.144,2.27-16.811c0.098,0.525,0.222,1.045,0.286,1.577c0.622,5.161,1.184,10.334,1.894,15.472
			c0.126,0.904,0.859,1.654,1.314,2.477c0.473-0.804,1.25-1.533,1.369-2.424c0.76-5.621,1.375-11.277,2.311-16.951
			c0.527,4.381,1.058,8.76,1.582,13.14c0.15,1.256,0.148,2.582,0.469,3.749c0.253,0.926,0.891,1.66,1.357,2.477
			c0.459-0.812,1.206-1.552,1.33-2.448c0.708-5.065,1.264-10.169,1.879-15.259c0.072-0.59,0.18-1.17,0.271-1.754
			c0.084,0.008,0.168,0.018,0.249,0.028c0.655,5.475,1.311,10.95,1.966,16.426c0.041,0.35-0.016,0.795,0.127,1.031
			c0.414,0.703,0.906,1.322,1.369,1.974c0.434-0.692,1.145-1.309,1.259-2.086c0.545-3.74,0.923-7.523,1.369-11.29
			c0.271-2.277,0.555-4.552,1.13-6.82c0.657,5.516,1.29,11.034,1.984,16.54c0.179,1.426-0.063,3.594,1.547,3.562
			c1.603-0.03,1.325-2.242,1.506-3.646c0.705-5.49,1.312-11.003,2.246-16.533c0.526,4.376,1.056,8.752,1.582,13.128
			c0.21,1.743,0.329,3.521,0.678,5.211c0.15,0.737,0.772,1.296,1.182,1.935c0.463-0.643,1.241-1.207,1.34-1.94
			c0.782-5.765,1.434-11.563,2.126-17.352c0.142-1.176,0.288-2.352,0.687-3.603c0.307,1.521,0.646,3.032,0.91,4.566
			c0.225,1.312,0.763,1.9,1.767,1.869c1.564-0.049,3.13-0.014,5.026-0.014C187.019,235.354,179.244,256,171.606,276.292z"/>
		<path opacity="0.5" fill-rule="evenodd" clip-rule="evenodd" fill="#DDDDDD" d="M217.659,310.262c0,0,17.882-38.788,29.197-54.996
			c12.601-18.05,23.219-34.259,30.997-50.972c0,0-18.665,13.077-35.663,18.779c0,0-21.729,52.984-32.58,66.397
			C209.61,289.471,216.129,302.24,217.659,310.262z"/>
		<path opacity="0.4" fill-rule="evenodd" clip-rule="evenodd" fill="#DDDDDD" d="M149.941,37.211c0,0-90.312,6.988-105.548,85.603
			c0,0,49.216-21.811,71.438-14.219C115.831,108.595,103.54,72.723,149.941,37.211z"/>
	</g>
</g>
</svg>
